<?xml version="1.0" standalone="no"?>
<!DOCTYPE svg PUBLIC "-//W3C//DTD SVG 20010904//EN"
 "http://www.w3.org/TR/2001/REC-SVG-20010904/DTD/svg10.dtd">
<svg version="1.0" xmlns="http://www.w3.org/2000/svg"
 width="192.000000pt" height="192.000000pt" viewBox="0 0 192.000000 192.000000"
 preserveAspectRatio="xMidYMid meet">

<g transform="translate(0.000000,192.000000) scale(0.100000,-0.100000)"
fill="#000000" stroke="none">
<path d="M986 1194 c-34 -11 -64 -31 -101 -68 -68 -68 -89 -128 -83 -235 7
-120 57 -200 156 -248 111 -54 259 -28 338 59 54 60 75 117 76 201 1 85 -13
137 -54 192 -73 101 -201 139 -332 99z m185 -30 c38 -19 95 -86 110 -130 23
-63 17 -200 -9 -259 -43 -94 -101 -135 -189 -135 -100 1 -181 82 -202 204 -14
77 -3 164 28 223 23 46 81 101 114 107 53 12 64 13 92 8 17 -3 42 -11 56 -18z"/>
<path d="M250 1192 c0 -6 14 -13 31 -17 19 -4 34 -16 40 -32 10 -28 11 -425 0
-463 -4 -16 -17 -28 -39 -34 -18 -5 -32 -12 -32 -15 0 -3 49 -6 110 -6 107 0
141 9 80 22 -17 3 -35 14 -40 24 -6 10 -10 63 -10 117 l0 100 93 4 c147 5 211
53 211 160 0 55 -22 92 -75 123 -30 17 -56 20 -201 23 -108 2 -168 0 -168 -6z
m312 -38 c39 -20 58 -53 58 -102 0 -82 -42 -126 -134 -138 -25 -4 -56 -4 -70
0 -26 6 -26 7 -26 106 0 119 9 147 47 153 38 5 92 -3 125 -19z"/>
<path d="M1460 1191 c0 -5 14 -12 31 -16 19 -4 34 -16 40 -32 10 -27 11 -425
0 -462 -4 -17 -17 -28 -39 -33 -59 -16 -33 -23 78 -23 109 0 138 7 80 20 -17
4 -35 15 -40 25 -6 11 -10 113 -10 240 0 127 4 229 10 240 5 10 23 21 40 25
62 14 26 25 -80 25 -60 0 -110 -4 -110 -9z"/>
</g>
</svg>
